<?xml version="1.0" standalone="no"?>
<!DOCTYPE svg PUBLIC "-//W3C//DTD SVG 1.1//EN" "http://www.w3.org/Graphics/SVG/1.1/DTD/svg11.dtd" >
<svg xmlns="http://www.w3.org/2000/svg">
<metadata></metadata>
<defs>
<font id="densia_sansregular" horiz-adv-x="835" >
<font-face units-per-em="2048" ascent="1577" descent="-471" />
<missing-glyph horiz-adv-x="339" />
<glyph horiz-adv-x="0" />
<glyph horiz-adv-x="682" />
<glyph unicode=" "  horiz-adv-x="339" />
<glyph unicode="&#x09;" horiz-adv-x="339" />
<glyph unicode="&#xa0;" horiz-adv-x="339" />
<glyph unicode="!" horiz-adv-x="413" d="M131 102q0 63 17 86t59 23t59 -23t17 -86t-17 -85.5t-59 -22.5t-59 22.5t-17 85.5zM147 1577h119l-20 -1178h-78z" />
<glyph unicode="&#x22;" horiz-adv-x="606" d="M123 1597h135l-31 -417h-73zM348 1597h135l-30 -417h-74z" />
<glyph unicode="#" horiz-adv-x="884" d="M31 430l14 72h154l102 532h-154l15 72h151l84 430h82l-84 -430h221l84 430h82l-84 -430h156l-14 -72h-154l-102 -532h153l-14 -72h-154l-82 -430h-81l81 430h-221l-82 -430h-82l82 430h-153zM281 502h221l102 532h-221z" />
<glyph unicode="$" horiz-adv-x="782" d="M82 373l90 24q19 -105 66.5 -170t117.5 -82l13 600q-143 124 -195.5 218.5t-52.5 212.5q0 126 66 201t167 91l-4 232h103l-7 -230q193 -22 244 -303l-86 -22q-35 210 -160 241l-12 -550q111 -89 172 -167.5t78.5 -137.5t17.5 -134q0 -147 -68.5 -232.5t-182.5 -101.5 l4 -227h-103l4 227q-215 23 -272 310zM217 1176q0 -174 152 -318l-13 528q-63 -15 -101 -70.5t-38 -139.5zM434 717l12 -572q74 14 116 80t42 172q0 76 -39.5 152.5t-130.5 167.5z" />
<glyph unicode="%" horiz-adv-x="991" d="M61 1163q0 176 48.5 280.5t134.5 104.5t134 -104.5t48 -280.5q0 -179 -47.5 -281t-134.5 -102t-135 102t-48 281zM84 0l735 1536h88l-735 -1536h-88zM137 1163q0 -145 28.5 -222t78.5 -77t78 76.5t28 222.5q0 144 -28 222.5t-78 78.5t-78.5 -79t-28.5 -222zM565 375 q0 176 48.5 280.5t134.5 104.5t134 -104.5t48 -280.5q0 -179 -47.5 -281t-134.5 -102t-135 102t-48 281zM641 375q0 -145 28.5 -222t78.5 -77t78 76.5t28 222.5q0 144 -28 222.5t-78 78.5t-78.5 -79t-28.5 -222z" />
<glyph unicode="&#x26;" horiz-adv-x="989" d="M78 338q0 157 66.5 276t191.5 215q-79 155 -107 245.5t-28 178.5q0 142 66 222.5t161 80.5q105 0 166.5 -75.5t93.5 -251.5l-96 -25q-15 129 -58 200t-104 71q-59 0 -92 -61t-33 -154q0 -77 24.5 -159t100.5 -238.5t229 -430.5l144 381l96 -25l-201 -423 q125 -225 207 -365h-110l-156 276q-144 -296 -299 -296q-110 0 -186 93.5t-76 264.5zM186 338q0 -125 50.5 -201t111.5 -76q65 0 124.5 72t129.5 209q-170 305 -231 422q-185 -159 -185 -426z" />
<glyph unicode="'" horiz-adv-x="380" d="M123 1597h135l-31 -417h-73z" />
<glyph unicode="(" horiz-adv-x="462" d="M123 551q0 393 78.5 653.5t191.5 362.5l49 -49q-85 -94 -151 -357t-66 -610t66 -610t151 -357l-49 -49q-113 102 -191.5 362.5t-78.5 653.5z" />
<glyph unicode=")" horiz-adv-x="462" d="M20 -416q85 95 151.5 358t66.5 609t-66.5 609t-151.5 358l50 49q113 -102 191.5 -362.5t78.5 -653.5t-78.5 -653.5t-191.5 -362.5z" />
<glyph unicode="*" horiz-adv-x="407" d="M-33 1374l43 135l146 -108l-9 -25zM12 1233l150 102l20 -14l-53 -174zM131 1597h143l-59 -172h-25zM223 1321l21 14l149 -102l-117 -86zM250 1401l145 108l43 -135l-180 2z" />
<glyph unicode="+" horiz-adv-x="649" d="M61 659v80h222v265h79v-265h226v-80h-226v-264h-79v264h-222z" />
<glyph unicode="," horiz-adv-x="356" d="M27 -213l104 418h135l-166 -418h-73z" />
<glyph unicode="-" horiz-adv-x="485" d="M61 578v90h363v-90h-363z" />
<glyph unicode="." horiz-adv-x="356" d="M102 102q0 63 17 86t59 23t59 -23t17 -86t-17 -85.5t-59 -22.5t-59 22.5t-17 85.5z" />
<glyph unicode="/" horiz-adv-x="542" d="M0 -266l453 1843h90l-453 -1843h-90z" />
<glyph unicode="0" horiz-adv-x="833" d="M102 768q0 379 80 583.5t234 204.5t234.5 -205t80.5 -583t-80.5 -583t-234.5 -205t-234 204.5t-80 583.5zM193 768q0 -144 13 -265t39.5 -215t70 -147t100.5 -53t101 53t70.5 147t40 215t13.5 265t-13.5 265t-40 215t-70.5 147t-101 53t-100.5 -53t-70 -147t-39.5 -215 t-13 -265z" />
<glyph unicode="1" horiz-adv-x="557" d="M33 1229l237 307h103v-1536h-103v1237l13 211h-9l-81 -148l-80 -139z" />
<glyph unicode="2" horiz-adv-x="743" d="M72 0q0 117 69 302t189 382q113 189 165 313.5t52 219.5q0 122 -43.5 190t-122.5 68q-76 0 -130.5 -76t-72.5 -215l-96 24q29 180 108.5 264t192.5 84q268 0 268 -339q0 -50 -12.5 -104t-26.5 -95.5t-53 -115.5t-63 -116.5t-84 -146.5q-117 -202 -170 -331.5t-62 -239.5 l453 34v-102h-561z" />
<glyph unicode="3" horiz-adv-x="792" d="M72 332l100 26q20 -141 73.5 -219t131.5 -78q106 0 157.5 85.5t51.5 269.5q0 57 -5.5 103t-23.5 97t-48 85.5t-83.5 57.5t-126.5 23h-18v90h18q283 0 283 345q0 122 -42.5 190t-121.5 68q-76 0 -131.5 -76t-73.5 -215l-96 24q29 181 107 264.5t190 83.5q124 0 198 -80 t74 -259q0 -57 -12 -113.5t-37.5 -112t-72 -97.5t-107.5 -60q106 -36 169.5 -145t63.5 -269q0 -226 -85.5 -333t-231.5 -107q-113 0 -191.5 85t-109.5 267z" />
<glyph unicode="4" horiz-adv-x="821" d="M41 469l477 1067h98v-1042l134 8v-92h-134v-410h-102v410h-461zM158 467l356 20v721l12 189h-8l-63 -170z" />
<glyph unicode="5" horiz-adv-x="782" d="M72 332l100 26q20 -141 73.5 -219t131.5 -78q106 0 157.5 105.5t51.5 331.5q0 197 -54.5 302t-148.5 105q-96 0 -180 -108l-58 28l48 711h444v-102l-348 28l-29 -446l-18 -96l6 -5q21 28 61 46q48 22 109 22q50 0 96.5 -27.5t86.5 -83t64.5 -151.5t24.5 -219 q0 -267 -85.5 -394.5t-231.5 -127.5q-113 0 -191.5 85t-109.5 267z" />
<glyph unicode="6" horiz-adv-x="802" d="M102 768q0 188 20 332t51 228.5t74.5 137.5t85 71.5t87.5 18.5q223 0 276 -348l-96 -24q-18 147 -68 219t-116 72q-209 0 -209 -707l-12 -104l8 -2q8 22 41 73q91 125 221 125q47 0 90.5 -23.5t81.5 -71t61 -132t23 -193.5q0 -124 -26 -217t-69.5 -144t-93 -75 t-104.5 -24q-36 0 -64.5 5.5t-64 24.5t-62 52t-53 92.5t-44 140.5t-28 202t-10.5 271zM211 580q7 -135 23.5 -233t37 -152t49 -85.5t52.5 -40t55 -8.5q80 0 134 90t54 285q0 175 -49.5 263.5t-124.5 88.5q-66 0 -128.5 -60.5t-102.5 -147.5z" />
<glyph unicode="7" horiz-adv-x="712" d="M61 1434v102h590l-469 -1536h-98l448 1468z" />
<glyph unicode="8" horiz-adv-x="817" d="M102 362q0 124 69 244t171 205q-49 44 -81 79t-64 84t-48 108t-16 128q0 95 27.5 171t91.5 125.5t156 49.5q139 0 205.5 -85.5t66.5 -235.5q0 -121 -59 -227.5t-150 -169.5q55 -50 90.5 -88.5t75 -97.5t59 -130.5t19.5 -156.5q0 -165 -83 -275t-224 -110 q-154 0 -230 100.5t-76 281.5zM193 373q0 -147 57.5 -229.5t157.5 -82.5q88 0 149 81.5t61 203.5q0 75 -18.5 138.5t-57.5 117.5t-71.5 87.5t-89.5 84.5q-188 -182 -188 -401zM229 1217q0 -56 15.5 -104.5t48 -92t61.5 -73.5t78 -73q72 72 115 168t43 181q0 49 -9 91.5 t-29 80t-56.5 59t-87.5 21.5q-50 0 -87 -27t-56 -69.5t-27.5 -83.5t-8.5 -78z" />
<glyph unicode="9" horiz-adv-x="802" d="M82 1096q0 124 26 217t69.5 144t93 75t104.5 24q36 0 64.5 -5.5t64 -24.5t61.5 -52t53 -92.5t44 -140.5t27.5 -202t10.5 -271q0 -188 -20 -332t-50.5 -228.5t-74 -137.5t-85 -71.5t-87.5 -18.5q-224 0 -277 348l97 24q18 -147 68 -219t116 -72q209 0 209 707l10 104l-8 2 q-12 -36 -37 -73q-84 -125 -203 -125q-51 0 -98 23.5t-88 71t-65.5 132t-24.5 193.5zM186 1100q0 -175 56 -263.5t139 -88.5q60 0 116 59t95 147q-7 135 -23.5 233.5t-37 153t-49 86t-52.5 40t-55 8.5q-80 0 -134.5 -90t-54.5 -285z" />
<glyph unicode=":" horiz-adv-x="356" d="M102 102q0 63 17 86t59 23t59 -23t17 -86t-17 -85.5t-59 -22.5t-59 22.5t-17 85.5zM102 1004q0 63 17 85.5t59 22.5t59 -22.5t17 -85.5t-17 -86t-59 -23t-59 23t-17 86z" />
<glyph unicode=";" horiz-adv-x="356" d="M27 -213l104 418h135l-166 -418h-73zM109 1004q0 63 16.5 85.5t58.5 22.5t59 -22.5t17 -85.5t-17 -86t-59 -23t-58.5 23t-16.5 86z" />
<glyph unicode="&#x3c;" horiz-adv-x="612" d="M41 700l373 373l75 -78l-350 -295l350 -294l-75 -78z" />
<glyph unicode="=" horiz-adv-x="649" d="M61 506v80h527v-80h-527zM61 813v80h527v-80h-527z" />
<glyph unicode="&#x3e;" horiz-adv-x="612" d="M123 406l350 294l-350 295l76 78l372 -373l-372 -372z" />
<glyph unicode="?" horiz-adv-x="651" d="M25 1249q29 181 109.5 264.5t197.5 83.5q121 0 191.5 -71t70.5 -207q0 -56 -16 -112t-34 -91t-51 -92t-47 -86q-65 -116 -97 -236t-32 -303h-77q0 209 29 334.5t91 239.5q9 20 51.5 98.5t60 132.5t17.5 115q0 94 -43 145.5t-122 51.5q-76 0 -130.5 -76t-72.5 -215z M207 102q0 63 17 86t59 23t58.5 -23t16.5 -86t-16.5 -85.5t-58.5 -22.5t-59 22.5t-17 85.5z" />
<glyph unicode="@" horiz-adv-x="1126" d="M61 633q0 175 42.5 319t115.5 238t169.5 145t205.5 51q225 0 348 -165t123 -488q0 -136 -20 -236t-52.5 -152t-67.5 -75.5t-73 -23.5q-70 0 -113 48t-61 152q-39 -112 -80.5 -156t-91.5 -44q-77 0 -122.5 92t-45.5 295q0 117 18 202.5t48 131.5t64 67t73 21 q90 0 147 -121l25 100h55v-557q0 -77 22 -120.5t62 -43.5q17 0 33.5 11.5t34.5 41.5t31.5 75.5t22.5 121t9 170.5q0 283 -103.5 430.5t-285.5 147.5q-192 0 -321.5 -184t-129.5 -494q0 -330 110 -498t341 -168q150 0 283 80l32 -70q-61 -37 -149.5 -61.5t-165.5 -24.5 q-274 0 -403.5 186t-129.5 556zM440 635q0 -301 76 -301q37 0 78.5 52t77.5 179v291q-21 54 -48.5 85.5t-56.5 31.5q-61 0 -94 -85t-33 -253z" />
<glyph unicode="A" d="M41 0l321 1536h111l322 -1536h-107l-90 455h-360l-91 -455h-106zM254 545h326l-142 721l-16 164h-8l-17 -164z" />
<glyph unicode="B" horiz-adv-x="854" d="M164 0v1536h203q170 0 263 -85.5t93 -264.5q0 -260 -201 -328q230 -76 230 -420q0 -223 -93.5 -330.5t-263.5 -107.5h-231zM266 88h125q133 0 192.5 86.5t59.5 274.5t-59.5 274t-192.5 86h-125v-721zM266 897h96q133 0 192.5 64.5t59.5 209.5q0 146 -59.5 211.5 t-192.5 65.5h-96v-551z" />
<glyph unicode="C" horiz-adv-x="796" d="M102 766q0 214 22.5 367.5t66.5 245t103.5 133.5t137.5 42q108 0 176 -82.5t103 -263.5l-97 -24q-24 143 -68.5 216t-117.5 73q-113 0 -165 -176.5t-52 -530.5q0 -353 52 -529t165 -176q145 0 207 297l100 -26q-40 -185 -116 -268.5t-187 -83.5q-78 0 -137.5 42 t-103.5 133t-66.5 244t-22.5 367z" />
<glyph unicode="D" horiz-adv-x="905" d="M164 0v1536h272q84 0 148.5 -41.5t112 -131t72 -239.5t24.5 -358t-24.5 -357.5t-72 -238t-111.5 -129.5t-149 -41h-272zM266 88h166q131 0 191.5 168.5t60.5 509.5t-60.5 511.5t-191.5 170.5h-166v-1360z" />
<glyph unicode="E" horiz-adv-x="696" d="M164 0v1536h471v-102l-369 26v-602l305 23v-107l-305 21v-721l369 28v-102h-471z" />
<glyph unicode="F" horiz-adv-x="696" d="M164 0v1536h471v-102l-369 26v-622l305 22v-106l-305 20v-774h-102z" />
<glyph unicode="G" horiz-adv-x="878" d="M102 766q0 213 24 367t71 245.5t110 133.5t146 42q116 0 188.5 -82t110.5 -264l-97 -24q-27 144 -76 216.5t-130 72.5q-124 0 -181 -177t-57 -530q0 -705 242 -705q114 0 167.5 142t59.5 434l-184 31v57h292q0 -203 -22.5 -348t-67 -231.5t-104.5 -126t-141 -39.5 q-82 0 -145 42t-110 133t-71.5 244.5t-24.5 366.5z" />
<glyph unicode="H" horiz-adv-x="962" d="M164 0v1536h102v-664h430v664h103v-1536h-103v782h-430v-782h-102z" />
<glyph unicode="I" horiz-adv-x="552" d="M102 0v70h123v1396h-123v70h349v-70h-123v-1396h123v-70h-349z" />
<glyph unicode="J" horiz-adv-x="778" d="M61 332l101 26q16 -146 56 -218t116 -72q178 0 178 364v1104h102v-1063q0 -493 -280 -493q-117 0 -184 86.5t-89 265.5z" />
<glyph unicode="K" horiz-adv-x="856" d="M164 0v1536h102v-680h113l291 680h127l-359 -719l402 -817h-123l-342 776l2 2h-111v-778h-102z" />
<glyph unicode="L" horiz-adv-x="675" d="M164 0v1536h102v-1462l369 28v-102h-471z" />
<glyph unicode="M" horiz-adv-x="1044" d="M164 0v1536h102l201 -731l51 -258h8l52 258l200 731h103v-1536h-103v1167l15 193h-9l-57 -289l-168 -600h-74l-168 600l-57 289h-8l14 -193v-1167h-102z" />
<glyph unicode="N" horiz-adv-x="983" d="M164 0v1536h102l361 -1038l98 -342h8l-16 211v1169h102v-1536h-102l-361 1040l-98 342h-8l16 -211v-1171h-102z" />
<glyph unicode="O" horiz-adv-x="915" d="M102 766q0 214 24.5 367.5t71.5 245t111 133.5t148 42q85 0 148.5 -42t111 -133.5t72 -245t24.5 -367.5t-24.5 -367t-72 -244t-111 -133t-148.5 -42t-148.5 42t-110.5 133t-71.5 244t-24.5 367zM211 766q0 -705 246 -705q131 0 189.5 175t58.5 530t-59 531t-189 176 q-246 0 -246 -707z" />
<glyph unicode="P" horiz-adv-x="833" d="M164 0v1536h231q169 0 263 -122.5t94 -366.5q0 -490 -357 -490h-129v-557h-102zM266 645h125q132 0 192 98t60 304t-60 303.5t-192 97.5h-125v-803z" />
<glyph unicode="Q" horiz-adv-x="915" d="M102 766q0 214 24.5 367.5t71.5 245t111 133.5t148 42q85 0 148.5 -42t111 -133.5t72 -245t24.5 -367.5q0 -553 -170 -715l168 -284h-123l-123 233q-47 -20 -108 -20q-85 0 -148.5 42t-110.5 133t-71.5 244t-24.5 367zM211 766q0 -352 58.5 -528.5t183.5 -176.5 q40 0 73 17l-116 223h88l96 -164q111 152 111 629q0 353 -60.5 530t-191.5 177q-125 0 -183.5 -177t-58.5 -530z" />
<glyph unicode="R" horiz-adv-x="880" d="M164 0v1536h231q170 0 263.5 -105.5t93.5 -322.5q0 -381 -289 -424l336 -684h-123l-301 680h-109v-680h-102zM266 768h125q133 0 192.5 81t59.5 259t-59.5 259t-192.5 81h-125v-680z" />
<glyph unicode="S" horiz-adv-x="782" d="M82 332l100 26q20 -140 73.5 -215t131.5 -75q209 0 209 288q0 98 -52.5 197.5t-181.5 218.5q-135 123 -188 220.5t-53 224.5q0 177 81 257t208 80q110 0 180 -81.5t100 -264.5l-96 -24q-38 282 -188 282q-82 0 -131.5 -65t-49.5 -184q0 -100 45 -177t172 -188 q143 -123 200.5 -245t57.5 -251q0 -183 -87 -279.5t-230 -96.5q-113 0 -191.5 85t-109.5 267z" />
<glyph unicode="T" horiz-adv-x="716" d="M41 1446v90h635v-90h-266v-1446h-103v1446h-266z" />
<glyph unicode="U" horiz-adv-x="921" d="M143 582v954h103v-954q0 -519 213 -519q217 0 217 519v954h102v-954q0 -134 -15 -237.5t-42 -172t-67.5 -112t-87.5 -62t-105 -18.5q-59 0 -106.5 18.5t-87.5 62t-67 112t-42 171.5t-15 238z" />
<glyph unicode="V" d="M49 1536h119l229 -1319l19 -147h8l16 147l228 1319h118l-319 -1536h-98z" />
<glyph unicode="W" horiz-adv-x="1189" d="M49 1536h119l233 -1319l17 -147h8l18 147l148 633l-123 686h119l188 -1319l17 -145h8l18 145l203 1319h119l-299 -1536h-99l-102 573l-16 146h-9l-22 -146l-127 -573h-98z" />
<glyph unicode="X" horiz-adv-x="864" d="M49 0l336 840l-279 696h119l211 -612l189 612h118l-278 -694l336 -842h-121l-266 764l-246 -764h-119z" />
<glyph unicode="Y" d="M49 1536h119l254 -788l246 788h118l-317 -815v-721h-102v721z" />
<glyph unicode="Z" horiz-adv-x="692" d="M29 0l503 1466l-409 -32v102h541l-506 -1468l454 34v-102h-583z" />
<glyph unicode="[" horiz-adv-x="552" d="M205 -432v1968h266v-57l-164 -23v-1808l164 -23v-57h-266z" />
<glyph unicode="\" horiz-adv-x="542" d="M0 1577h90l453 -1843h-90z" />
<glyph unicode="]" horiz-adv-x="552" d="M82 -375l164 23v1808l-164 23v57h266v-1968h-266v57z" />
<glyph unicode="^" horiz-adv-x="573" d="M37 1122l250 455l250 -455l-52 -28l-198 307l-199 -307z" />
<glyph unicode="_" horiz-adv-x="628" d="M61 -20h506v-80h-506v80z" />
<glyph unicode="`" horiz-adv-x="421" d="M55 1577h135l134 -311h-58z" />
<glyph unicode="a" horiz-adv-x="733" d="M72 274q0 158 76 234t194 76q88 0 166 -56v254q0 137 -31 199.5t-98 62.5q-65 0 -106 -51t-52 -143l-100 24q16 110 85 181t173 71q107 0 169 -76.5t62 -220.5v-829h-82l-6 225h-8q-44 -129 -100.5 -187t-132.5 -58q-94 0 -151.5 69.5t-57.5 224.5zM180 274 q0 -206 111 -206q51 0 109 57t108 197v145q-72 35 -166 35q-77 0 -119.5 -60t-42.5 -168z" />
<glyph unicode="b" horiz-adv-x="763" d="M123 0v1577h102v-535l-12 -196h8q106 280 236 280q39 0 70 -13t61 -50.5t50 -100t32 -166.5t12 -245q0 -127 -12.5 -226.5t-34.5 -163.5t-52.5 -105.5t-64.5 -58.5t-74 -17q-64 0 -118.5 51t-104.5 170h-8l-12 -201h-78zM225 322q26 -74 55 -127t57 -79t51 -37t44 -11 q141 0 141 483q0 113 -8 200.5t-21 140.5t-30.5 87t-34.5 46.5t-35 12.5q-49 0 -109 -79.5t-110 -239.5v-397z" />
<glyph unicode="c" horiz-adv-x="634" d="M82 551q0 575 268 575q94 0 150.5 -67.5t72.5 -179.5l-98 -25q-22 190 -129 190q-83 0 -119.5 -119t-36.5 -374q0 -254 37 -372t123 -118q53 0 94.5 53.5t51.5 141.5l98 -25q-16 -110 -80.5 -180.5t-161.5 -70.5q-270 0 -270 571z" />
<glyph unicode="d" horiz-adv-x="763" d="M82 551q0 158 19.5 273t54.5 179t78.5 93.5t97.5 29.5q59 0 115.5 -60t97.5 -159h8l-14 199v471h102v-1577h-78l-8 219h-8q-50 -136 -105.5 -187.5t-122.5 -51.5q-50 0 -91 29t-75 92t-52.5 177.5t-18.5 272.5zM190 551q0 -483 142 -483q47 0 103 57t104 197v507 q-25 43 -43.5 71.5t-47 64.5t-57.5 54.5t-57 18.5q-71 0 -107.5 -128.5t-36.5 -358.5z" />
<glyph unicode="e" horiz-adv-x="681" d="M82 551q0 575 272 575q134 0 196 -134q49 -108 49 -322q0 -52 -3 -111h-406v-8q0 -254 37 -372t123 -118q53 0 94.5 53.5t51.5 141.5l98 -25q-16 -110 -80.5 -180.5t-161.5 -70.5q-270 0 -270 571zM190 616l297 25v45q0 185 -30 267q-34 91 -107 91q-79 0 -117 -104.5 t-43 -323.5z" />
<glyph unicode="f" horiz-adv-x="471" d="M61 1018v57l82 8v252q0 128 51.5 192t133.5 64q65 0 108 -14v-92q-37 18 -84 18q-59 0 -82.5 -39t-23.5 -135v-233l186 20v-98h-186v-1018h-103v1018h-82z" />
<glyph unicode="g" horiz-adv-x="727" d="M41 -223q0 167 135 270q-88 52 -88 148q0 97 98 206q-108 88 -108 334q0 391 272 391q113 0 162 -49l215 51v-96h-178q76 -99 76 -297q0 -197 -71.5 -292t-203.5 -95q-67 0 -114 23q-37 -42 -50.5 -75.5t-13.5 -72.5q0 -56 58.5 -89t183.5 -56q149 -28 207.5 -96 t58.5 -181q0 -51 -17.5 -100.5t-52.5 -94t-98 -71.5t-145 -27q-78 0 -138 18.5t-94.5 47t-56.5 66t-29.5 70.5t-7.5 67zM145 -193q0 -38 11 -72.5t35 -67.5t71 -53t111 -20q62 0 108 18.5t70.5 50t35.5 66t11 72.5q0 23 -10.5 47.5t-34 51.5t-71 49.5t-113.5 34.5 q-86 16 -156 43q-68 -94 -68 -220zM186 735q0 -159 37.5 -232t122.5 -73q92 0 131 72.5t39 232.5q0 163 -39 236t-131 73q-85 0 -122.5 -73.5t-37.5 -235.5z" />
<glyph unicode="h" horiz-adv-x="776" d="M123 0v1577h102v-727q58 141 127.5 208.5t143.5 67.5q87 0 122 -65.5t35 -231.5v-829h-102v782q0 142 -17 199t-63 57q-50 0 -122 -81.5t-124 -237.5v-719h-102z" />
<glyph unicode="i" horiz-adv-x="393" d="M61 1049v57h185v-1106h-103v1030zM109 1434q0 63 16.5 85.5t58.5 22.5t59 -22.5t17 -85.5t-17 -86t-59 -23t-58.5 23t-16.5 86z" />
<glyph unicode="j" horiz-adv-x="393" d="M-47 -252q38 -18 84 -18q59 0 82.5 48.5t23.5 166.5v1085l-82 19v57h185v-1208q0 -140 -46 -198t-139 -58q-65 0 -108 14v92zM109 1434q0 63 16.5 85.5t58.5 22.5t59 -22.5t17 -85.5t-17 -86t-59 -23t-58.5 23t-16.5 86z" />
<glyph unicode="k" horiz-adv-x="714" d="M123 0v1577h102v-940h99l204 469h119l-256 -510l295 -596h-119l-245 561h-97v-561h-102z" />
<glyph unicode="l" horiz-adv-x="368" d="M123 139v1438h102v-1432q0 -39 12 -55t39 -16q33 0 64 10v-84q-35 -14 -90 -14t-91 38t-36 115z" />
<glyph unicode="m" horiz-adv-x="1163" d="M123 0v1106h78l14 -277h8q43 148 112 222.5t140 74.5q79 0 113.5 -67t34.5 -230h8q43 148 112 222.5t140 74.5q87 0 122 -65.5t35 -231.5v-829h-102v782q0 142 -17 199t-63 57t-111.5 -81t-113.5 -234v-723h-103v782q0 142 -16.5 199t-62.5 57t-112 -81t-114 -234v-723 h-102z" />
<glyph unicode="n" horiz-adv-x="776" d="M123 0v1106h78l14 -277h8q13 46 36 93.5t56.5 95t81 78t99.5 30.5q87 0 122 -65.5t35 -231.5v-829h-102v782q0 142 -17 199t-63 57q-50 0 -122 -81.5t-124 -237.5v-719h-102z" />
<glyph unicode="o" horiz-adv-x="751" d="M82 551q0 575 293 575q295 0 295 -575q0 -571 -295 -571q-293 0 -293 571zM190 551q0 -252 42.5 -371t138.5 -119q102 0 146 118t44 372q0 256 -44 374.5t-146 118.5q-96 0 -138.5 -119.5t-42.5 -373.5z" />
<glyph unicode="p" horiz-adv-x="763" d="M123 -471v1577h78l12 -260h8q106 280 236 280q39 0 70 -13t61 -50.5t50 -100t32 -166.5t12 -245q0 -127 -12.5 -226.5t-34.5 -163.5t-52.5 -105.5t-64.5 -58.5t-74 -17q-64 0 -118.5 51t-104.5 170h-8l12 -156v-516h-102zM225 322q26 -74 55 -127t57 -79t51 -37t44 -11 q141 0 141 483q0 113 -8 200.5t-21 140.5t-30.5 87t-34.5 46.5t-35 12.5q-49 0 -109 -79.5t-110 -239.5v-397z" />
<glyph unicode="q" horiz-adv-x="763" d="M82 551q0 158 19.5 273t54.5 179t78.5 93.5t97.5 29.5q59 0 115.5 -60t97.5 -159h8l10 199h78v-1577h-102v518l16 172h-8q-48 -132 -104 -185.5t-124 -53.5q-50 0 -91 29t-75 92t-52.5 177.5t-18.5 272.5zM190 551q0 -483 142 -483q47 0 103 57t104 197v507 q-25 43 -43.5 71.5t-47 64.5t-57.5 54.5t-57 18.5q-71 0 -107.5 -128.5t-36.5 -358.5z" />
<glyph unicode="r" horiz-adv-x="536" d="M123 0v1106h78l14 -262h8q56 143 127 212.5t146 69.5v-139q-175 0 -271 -270v-717h-102z" />
<glyph unicode="s" horiz-adv-x="653" d="M61 231l99 25q10 -88 51.5 -138t95.5 -50q75 0 118.5 47t43.5 125q0 80 -36 142.5t-138 149.5q-106 88 -152.5 162t-46.5 183q0 117 64.5 183t171.5 66q96 0 151.5 -67t71.5 -180l-98 -25q-21 184 -129 184q-129 0 -129 -161q0 -65 41 -126.5t137 -146.5 q111 -98 152.5 -170.5t41.5 -191.5q0 -124 -74.5 -193t-193.5 -69q-97 0 -161.5 70.5t-80.5 180.5z" />
<glyph unicode="t" horiz-adv-x="450" d="M41 1018v57l82 8v19l20 229h82v-235l187 20v-98h-187v-725q0 -118 23.5 -166.5t83.5 -48.5q46 0 84 18v-92q-43 -14 -109 -14q-93 0 -138.5 58t-45.5 198v772h-82z" />
<glyph unicode="u" horiz-adv-x="776" d="M123 276v830h102v-823q0 -65 7 -109t21 -66.5t29.5 -31t36.5 -8.5q51 0 116 80t116 237v721h102v-1106h-78l-12 262h-8q-104 -282 -260 -282q-56 0 -91.5 23.5t-58 90.5t-22.5 182z" />
<glyph unicode="v" horiz-adv-x="667" d="M41 1106h119l162 -899l14 -127h8l14 127l150 899h119l-254 -1106h-82z" />
<glyph unicode="w" horiz-adv-x="966" d="M41 1106h119l143 -899l10 -127h9l18 127l123 493l-78 406h98l150 -899l14 -127h8l13 127l139 899h119l-244 -1106h-82l-92 473l-12 117h-9l-20 -117l-117 -473h-82z" />
<glyph unicode="x" horiz-adv-x="655" d="M41 0l250 573l-223 533h118l121 -338l29 -119h8l127 457h119l-215 -524l239 -582h-118l-142 395l-24 117h-8l-162 -512h-119z" />
<glyph unicode="y" horiz-adv-x="643" d="M31 1106h119l155 -707l19 -123h8l12 123l139 707h119l-235 -938l-111 -639h-119l156 637z" />
<glyph unicode="z" horiz-adv-x="571" d="M20 0l373 1047l-319 -33v92h440l-375 -1049l371 35v-92h-490z" />
<glyph unicode="{" horiz-adv-x="499" d="M41 541v63q108 0 151.5 67t43.5 220q0 76 -15.5 209t-15.5 194q0 115 68.5 178.5t185.5 63.5v-57q-86 0 -123 -46t-37 -141q0 -52 17.5 -187.5t17.5 -205.5q0 -134 -37.5 -215.5t-124.5 -112.5q87 -31 124.5 -112t37.5 -213q0 -76 -17.5 -226t-17.5 -208q0 -95 37 -141 t123 -46v-57q-117 0 -185.5 63.5t-68.5 178.5q0 66 15.5 212.5t15.5 231.5q0 153 -43.5 220t-151.5 67z" />
<glyph unicode="|" horiz-adv-x="512" d="M201 -459l20 1032l-20 1004h110l-20 -1004l20 -1032h-110z" />
<glyph unicode="}" horiz-adv-x="499" d="M41 -375q86 0 123 46t37 141q0 58 -17.5 208t-17.5 226q0 133 37 213.5t125 111.5q-88 31 -125 112t-37 216q0 70 17.5 205.5t17.5 187.5q0 95 -37 141t-123 46v57q117 0 185.5 -63.5t68.5 -178.5q0 -61 -15.5 -194t-15.5 -209q0 -153 43.5 -220t151.5 -67v-63 q-108 0 -151.5 -67t-43.5 -220q0 -85 15.5 -231.5t15.5 -212.5q0 -115 -68.5 -178.5t-185.5 -63.5v57z" />
<glyph unicode="~" horiz-adv-x="745" d="M33 668q52 81 94 117t100 36q36 0 70.5 -15.5t101.5 -60.5q83 -57 119 -57q30 0 60.5 25.5t76.5 89.5l45 -35q-52 -81 -94 -117.5t-100 -36.5q-36 0 -70.5 15.5t-101.5 60.5q-47 32 -72 45t-47 13q-30 0 -60.5 -25.5t-76.5 -89.5z" />
<glyph unicode="&#xa1;" horiz-adv-x="413" d="M131 1016q0 63 17 85.5t59 22.5t59 -22.5t17 -85.5t-17 -86t-59 -23t-59 23t-17 86zM147 -459l21 1178h78l20 -1178h-119z" />
<glyph unicode="&#xa2;" horiz-adv-x="655" d="M82 766q0 519 219 569l-4 201h102l-6 -199q83 -14 132 -79t65 -164l-78 -25q-26 166 -121 188l-12 -458l12 -520q48 14 81.5 65t43.5 127l78 -25q-14 -98 -67 -165t-134 -82l6 -199h-102l4 201q-219 50 -219 565zM170 766q0 -422 133 -481l14 514l-14 452 q-133 -59 -133 -485z" />
<glyph unicode="&#xa3;" horiz-adv-x="675" d="M0 719v80h121v182q0 575 268 575q94 0 150.5 -67.5t72.5 -179.5l-98 -25q-22 191 -129 191q-84 0 -124 -121t-40 -373v-182h268v-80h-268v-375q0 -175 -71 -272l481 30v-102h-574l-10 49q74 95 74 283v387h-121z" />
<glyph unicode="&#xa4;" horiz-adv-x="772" d="M61 449l121 94q-63 97 -63 245q0 151 65 246l-123 96l76 76l92 -121q67 54 152 54q88 0 156 -58l98 125l76 -76l-129 -100q63 -92 63 -242q0 -149 -63 -241l129 -98l-76 -76l-96 123q-64 -58 -158 -58q-89 0 -152 54l-92 -119zM203 788q0 -127 45 -200.5t133 -73.5 q90 0 135 73.5t45 200.5q0 125 -45.5 200t-134.5 75q-88 0 -133 -75t-45 -200z" />
<glyph unicode="&#xa5;" d="M49 1536h119l254 -725h2l244 725h118l-307 -725h201v-80h-211v-186h211v-80h-211v-465h-102v465h-213v80h213v186h-213v80h200z" />
<glyph unicode="&#xa6;" horiz-adv-x="512" d="M201 -459l16 824h78l16 -824h-110zM201 1577h110l-16 -795h-78z" />
<glyph unicode="&#xa7;" horiz-adv-x="716" d="M33 1051q0 134 42 248t125 185.5t191 71.5q96 0 151.5 -67t71.5 -180l-98 -25q-21 184 -129 184q-129 0 -129 -161q0 -72 43.5 -175t105.5 -210.5t124 -218t105.5 -227t43.5 -208.5q0 -132 -41.5 -245.5t-125 -186t-191.5 -72.5q-97 0 -161.5 71t-80.5 181l98 25 q10 -88 51.5 -138t96.5 -50q129 0 129 161q0 72 -43.5 174.5t-105.5 210t-124 217.5t-105.5 226.5t-43.5 208.5zM119 1053q0 -91 43 -201t105.5 -214t125.5 -206t110 -208t52 -189q39 98 39 233q0 91 -43 200.5t-105.5 213.5t-126 206t-111 207.5t-52.5 188.5 q-37 -90 -37 -231z" />
<glyph unicode="&#xa8;" horiz-adv-x="669" d="M102 1442q0 56 15 76t53 20q36 0 51 -20t15 -76t-15 -76t-51 -20q-38 0 -53 20t-15 76zM420 1442q0 56 14.5 76t50.5 20q38 0 53 -20t15 -76t-15 -76t-53 -20q-36 0 -50.5 20t-14.5 76z" />
<glyph unicode="&#xa9;" horiz-adv-x="1198" d="M41 766q0 198 44.5 361.5t120 270.5t175.5 165.5t213 58.5t213 -58.5t175.5 -165.5t120 -270.5t44.5 -361.5t-44.5 -361.5t-120 -270.5t-175.5 -165.5t-213 -58.5t-213 58.5t-175.5 165.5t-120 270.5t-44.5 361.5zM123 766q0 -178 37 -326.5t101 -247t149.5 -152.5 t183.5 -54q97 0 182.5 54t149.5 152.5t101.5 247t37.5 326.5t-37.5 326.5t-101.5 247t-149.5 152.5t-182.5 54q-98 0 -183.5 -54t-149.5 -152.5t-101 -247t-37 -326.5zM334 766q0 575 268 575q94 0 150.5 -67.5t72.5 -179.5l-98 -25q-21 184 -129 184q-84 0 -120 -116.5 t-36 -370.5q0 -253 37 -368t123 -115q53 0 94.5 50t51.5 138l98 -25q-16 -110 -80.5 -180.5t-161.5 -70.5q-270 0 -270 571z" />
<glyph unicode="&#xaa;" horiz-adv-x="550" d="M51 993q0 114 57 169t148 55q67 0 123 -39v102q0 109 -21 160t-71 51q-44 0 -72.5 -34t-36.5 -89l-90 21q12 74 65 120.5t134 46.5q89 0 135.5 -61.5t46.5 -181.5v-527h-70l-18 140q-67 -154 -166 -154q-73 0 -118.5 53t-45.5 168zM94 573v70h348v-70h-348zM145 993 q0 -74 22.5 -112.5t53.5 -38.5q35 0 79.5 44.5t78.5 143.5v94q-52 25 -123 25q-53 0 -82 -40.5t-29 -115.5z" />
<glyph unicode="&#xab;" horiz-adv-x="821" d="M102 659l287 467l64 -36l-215 -431l215 -430l-64 -36zM369 659l286 467l64 -36l-215 -431l215 -430l-64 -36z" />
<glyph unicode="&#xac;" horiz-adv-x="649" d="M61 659v80h527v-344h-80v264h-447z" />
<glyph unicode="&#xad;" horiz-adv-x="485" d="M61 578v90h363v-90h-363z" />
<glyph unicode="&#xae;" horiz-adv-x="815" d="M70 1157q0 115 40 214.5t117.5 162.5t175.5 63q101 0 179 -63t117.5 -162.5t39.5 -214.5q0 -114 -41 -214t-119 -163t-176 -63t-175.5 63t-117.5 162.5t-40 214.5zM133 1157q0 -158 76 -271.5t194 -113.5q120 0 196.5 113.5t76.5 271.5q0 102 -32 189t-95.5 141.5 t-145.5 54.5q-118 0 -194 -114.5t-76 -270.5zM279 934v471h112q154 0 154 -121q0 -55 -27.5 -89.5t-75.5 -45.5l127 -215h-92l-98 211h-29v-211h-71zM350 1182h39q78 0 78 102q0 45 -18 62.5t-60 17.5h-39v-182z" />
<glyph unicode="&#xaf;" horiz-adv-x="559" d="M76 1376v90h444v-90h-444z" />
<glyph unicode="&#xb0;" horiz-adv-x="485" d="M41 1505q0 90 54.5 152.5t146.5 62.5t147 -62.5t55 -152.5t-55 -152.5t-147 -62.5t-146.5 62.5t-54.5 152.5zM121 1505q0 -61 32.5 -102t88.5 -41q58 0 90.5 41t32.5 102q0 60 -33 102t-90 42q-56 0 -88.5 -42t-32.5 -102z" />
<glyph unicode="&#xb1;" horiz-adv-x="649" d="M61 340v80h527v-80h-527zM61 750v79h222v224h79v-224h226v-79h-226v-224h-79v224h-222z" />
<glyph unicode="&#xb2;" horiz-adv-x="444" d="M43 1501q16 87 65 128.5t113 41.5q71 0 116.5 -40t45.5 -126q0 -24 -4.5 -46.5t-20 -54.5t-23 -47t-37.5 -64.5t-40 -67.5q-5 -9 -20 -34.5t-19.5 -33.5t-16.5 -29t-16 -29.5t-13 -26t-13 -27t-9 -23.5t-8.5 -25.5t-5.5 -23.5l230 26v-88h-318q0 56 37 146t102 190 q113 173 113 258q0 50 -21 77.5t-59 27.5q-37 0 -64 -31.5t-36 -89.5z" />
<glyph unicode="&#xb3;" horiz-adv-x="454" d="M31 1067l80 20q9 -60 35 -92t65 -32q51 0 75.5 37t24.5 116q0 78 -33.5 123t-105.5 45h-8v64h8q65 0 101 44t36 113q0 107 -80 107q-38 0 -64.5 -32t-33.5 -91l-78 20q16 73 60.5 117.5t115.5 44.5q75 0 118.5 -45.5t43.5 -120.5q0 -63 -36.5 -117.5t-100.5 -68.5 q63 -16 101 -67t38 -134q0 -109 -51.5 -162t-132.5 -53q-153 0 -178 164z" />
<glyph unicode="&#xb4;" horiz-adv-x="421" d="M55 1266l133 311h136l-211 -311h-58z" />
<glyph unicode="&#xb5;" horiz-adv-x="776" d="M123 -459v1565h102v-823q0 -65 7 -109t21 -66.5t29.5 -31t36.5 -8.5q51 0 116 80t116 237v721h102v-1106h-78l-24 254q-107 -274 -244 -274q-62 0 -110 71l28 -510h-102z" />
<glyph unicode="&#xb6;" horiz-adv-x="833" d="M170 1120q0 208 79.5 312t223.5 104h197v-1401q0 -179 -62 -259.5t-166 -80.5q-97 0 -165.5 63.5t-94.5 202.5l97 25q15 -100 57.5 -154.5t103.5 -54.5t94 68t33 190v570h-94q-303 0 -303 415z" />
<glyph unicode="&#xb7;" horiz-adv-x="348" d="M102 690q0 59 16 81t56 22q39 0 55.5 -22t16.5 -81q0 -58 -16.5 -80t-55.5 -22q-40 0 -56 21.5t-16 80.5z" />
<glyph unicode="&#xb8;" horiz-adv-x="356" d="M-20 -328l67 17q7 -41 37 -64.5t70 -23.5q86 0 86 92q0 47 -41 83t-133 46l71 213h53l-22 -146q77 -15 120.5 -64.5t43.5 -121.5q0 -76 -52.5 -120t-132.5 -44q-65 0 -110.5 38.5t-56.5 94.5z" />
<glyph unicode="&#xb9;" horiz-adv-x="370" d="M25 1511l147 148h82v-748h-82v682l-88 -131z" />
<glyph unicode="&#xba;" horiz-adv-x="544" d="M51 1163q0 393 221 393q222 0 222 -393q0 -391 -222 -391q-221 0 -221 391zM96 573v70h348v-70h-348zM145 1163q0 -164 29 -244.5t94 -80.5q70 0 100.5 80t30.5 245t-30.5 246.5t-100.5 81.5q-64 0 -93.5 -82t-29.5 -246z" />
<glyph unicode="&#xbb;" horiz-adv-x="821" d="M102 229l215 430l-215 431l64 36l287 -467l-287 -466zM369 229l215 430l-215 431l63 36l287 -467l-287 -466z" />
<glyph unicode="&#xbc;" horiz-adv-x="989" d="M78 1389l147 147h82v-748h-82v682l-88 -131zM84 0l735 1536h88l-735 -1536h-88zM539 238l245 510h78v-504l86 6v-72h-86v-188h-82v188h-229zM621 225l159 13v241l15 174l-11 2l-47 -129z" />
<glyph unicode="&#xbd;" horiz-adv-x="989" d="M78 1389l147 147h82v-748h-82v682l-88 -131zM84 0l735 1536h88l-735 -1536h-88zM616 590q16 87 65.5 128.5t113.5 41.5q71 0 116 -40t45 -126q0 -21 -5 -42.5t-10.5 -38t-20 -45t-23.5 -44t-32 -53.5t-34 -58q-84 -145 -103 -194q-12 -30 -17 -58l229 27v-88h-317 q0 56 37 146t102 190q112 171 112 258q0 50 -20.5 77t-58.5 27t-65 -31.5t-36 -88.5z" />
<glyph unicode="&#xbe;" horiz-adv-x="989" d="M57 944l80 21q9 -60 35.5 -92.5t65.5 -32.5q51 0 75.5 37t24.5 116q0 78 -33.5 123t-105.5 45h-9v64h9q65 0 101 44t36 113q0 107 -80 107q-38 0 -64.5 -32t-33.5 -91l-78 20q16 73 60 117.5t116 44.5q75 0 118.5 -45.5t43.5 -120.5q0 -63 -36.5 -117.5t-100.5 -68.5 q63 -16 101 -67t38 -134q0 -109 -51.5 -162t-132.5 -53q-154 0 -179 164zM84 0l735 1536h88l-735 -1536h-88zM539 238l245 510h78v-504l86 6v-72h-86v-188h-82v188h-229zM621 225l159 13v241l15 174l-11 2l-47 -129z" />
<glyph unicode="&#xbf;" horiz-adv-x="651" d="M57 -201q0 56 16 112t34 91t51 92t47 86q65 116 97 236t32 303h78q0 -209 -29 -334.5t-92 -239.5q-9 -20 -51.5 -98.5t-60 -132.5t-17.5 -115q0 -94 43.5 -145t122.5 -51q76 0 129.5 76t72.5 215l97 -25q-29 -180 -110 -264t-198 -84q-121 0 -191.5 71t-70.5 207z M293 1016q0 63 17 85.5t59 22.5t58.5 -22.5t16.5 -85.5t-16.5 -86t-58.5 -23t-59 23t-17 86z" />
<glyph unicode="&#xc0;" d="M41 0l321 1536h111l322 -1536h-107l-90 455h-360l-91 -455h-106zM182 1905h152l153 -260h-59zM254 545h326l-142 721l-16 164h-8l-17 -164z" />
<glyph unicode="&#xc1;" d="M41 0l321 1536h111l322 -1536h-107l-90 455h-360l-91 -455h-106zM254 545h326l-142 721l-16 164h-8l-17 -164zM365 1645l153 260h152l-246 -260h-59z" />
<glyph unicode="&#xc2;" d="M41 0l321 1536h111l322 -1536h-107l-90 455h-360l-91 -455h-106zM168 1659l250 250l250 -250l-43 -43l-207 156l-207 -156zM254 545h326l-142 721l-16 164h-8l-17 -164z" />
<glyph unicode="&#xc3;" d="M41 0l321 1536h111l322 -1536h-107l-90 455h-360l-91 -455h-106zM156 1673q51 111 94 161t92 50q31 0 61 -22.5t49.5 -49t40 -49t33.5 -22.5q21 0 48 30.5t71 110.5l51 -24q-53 -111 -94.5 -161t-85.5 -50q-29 0 -58.5 22.5t-49 49t-41.5 49t-39 22.5q-23 0 -50 -30.5 t-71 -110.5zM254 545h326l-142 721l-16 164h-8l-17 -164z" />
<glyph unicode="&#xc4;" d="M41 0l321 1536h111l322 -1536h-107l-90 455h-360l-91 -455h-106zM193 1776q0 56 14.5 76t52.5 20q36 0 51 -20t15 -76t-15 -76.5t-51 -20.5q-37 0 -52 20.5t-15 76.5zM254 545h326l-142 721l-16 164h-8l-17 -164zM510 1776q0 56 14.5 76t50.5 20q38 0 53 -20t15 -76 t-15 -76.5t-53 -20.5q-36 0 -50.5 20.5t-14.5 76.5z" />
<glyph unicode="&#xc5;" d="M41 0l319 1526q-54 17 -85 65t-31 109q0 76 48.5 129t125.5 53q80 0 128 -52.5t48 -129.5q0 -61 -31.5 -109t-87.5 -65l320 -1526h-107l-90 455h-360l-91 -455h-106zM254 545h326l-142 721l-16 164h-8l-17 -164zM317 1700q0 -45 28 -80t73 -35q48 0 75 34.5t27 80.5 q0 48 -27 82.5t-75 34.5q-45 0 -73 -35t-28 -82z" />
<glyph unicode="&#xc6;" horiz-adv-x="1134" d="M39 0l559 1536h496v-102l-369 26v-602l305 23v-107l-305 21v-721l369 28v-102h-471v455h-320l-153 -455h-111zM334 545h289v698l12 187h-8l-56 -187z" />
<glyph unicode="&#xc7;" horiz-adv-x="817" d="M102 766q0 214 22.5 367.5t66.5 245t103.5 133.5t137.5 42q108 0 176 -82.5t103 -263.5l-97 -24q-24 143 -68.5 216t-117.5 73q-113 0 -165 -176.5t-52 -530.5q0 -353 52 -529t165 -176q145 0 207 297l100 -26q-39 -178 -110 -261.5t-176 -88.5l-15 -93 q77 -15 120.5 -64.5t43.5 -121.5q0 -76 -52 -120t-132 -44q-65 0 -111 38.5t-57 94.5l67 17q7 -41 37 -64.5t70 -23.5q86 0 86 92q0 47 -41 83t-133 46l53 162q-283 47 -283 782z" />
<glyph unicode="&#xc8;" horiz-adv-x="675" d="M158 1905h151l154 -260h-60zM164 0v1536h471v-102l-369 26v-602l305 23v-107l-305 21v-721l369 28v-102h-471z" />
<glyph unicode="&#xc9;" horiz-adv-x="675" d="M164 0v1536h471v-102l-369 26v-602l305 23v-107l-305 21v-721l369 28v-102h-471zM348 1645l154 260h151l-245 -260h-60z" />
<glyph unicode="&#xca;" horiz-adv-x="675" d="M150 1659l249 250l250 -250l-43 -43l-207 156l-206 -156zM164 0v1536h471v-102l-369 26v-602l305 23v-107l-305 21v-721l369 28v-102h-471z" />
<glyph unicode="&#xcb;" horiz-adv-x="675" d="M164 0v1536h471v-102l-369 26v-602l305 23v-107l-305 21v-721l369 28v-102h-471zM174 1776q0 56 15 76t53 20q36 0 50.5 -20t14.5 -76t-14.5 -76.5t-50.5 -20.5q-38 0 -53 20.5t-15 76.5zM492 1776q0 56 14.5 76t50.5 20q38 0 53 -20t15 -76t-15 -76.5t-53 -20.5 q-36 0 -50.5 20.5t-14.5 76.5z" />
<glyph unicode="&#xcc;" horiz-adv-x="471" d="M12 1905h152l153 -260h-59zM61 0v70h123v1396h-123v70h349v-70h-123v-1396h123v-70h-349z" />
<glyph unicode="&#xcd;" horiz-adv-x="471" d="M61 0v70h123v1396h-123v70h349v-70h-123v-1396h123v-70h-349zM184 1645l154 260h151l-245 -260h-60z" />
<glyph unicode="&#xce;" horiz-adv-x="471" d="M-14 1659l250 250l249 -250l-43 -43l-206 156l-207 -156zM61 0v70h123v1396h-123v70h349v-70h-123v-1396h123v-70h-349z" />
<glyph unicode="&#xcf;" horiz-adv-x="471" d="M10 1776q0 56 15 76t53 20q36 0 50.5 -20t14.5 -76t-14.5 -76.5t-50.5 -20.5q-38 0 -53 20.5t-15 76.5zM61 0v70h123v1396h-123v70h349v-70h-123v-1396h123v-70h-349zM328 1776q0 56 14.5 76t50.5 20q38 0 53 -20t15 -76t-15 -76.5t-53 -20.5q-36 0 -50.5 20.5 t-14.5 76.5z" />
<glyph unicode="&#xd0;" horiz-adv-x="905" d="M68 782v88h96v666h272q84 0 148.5 -41.5t112 -131t72 -239.5t24.5 -358t-24.5 -357.5t-72 -238t-111.5 -129.5t-149 -41h-272v782h-96zM266 88h166q131 0 191.5 168.5t60.5 509.5t-60.5 511.5t-191.5 170.5h-166v-578h246v-88h-246v-694z" />
<glyph unicode="&#xd1;" horiz-adv-x="983" d="M164 0v1536h102l361 -1038l98 -342h8l-16 211v1169h102v-1536h-102l-361 1040l-98 342h-8l16 -211v-1171h-102zM240 1673q51 111 94 161t92 50q31 0 61 -22.5t49.5 -49t40 -49t33.5 -22.5q21 0 48 30.5t71 110.5l51 -24q-53 -111 -94.5 -161t-85.5 -50q-29 0 -58.5 22.5 t-49 49t-41.5 49t-39 22.5q-23 0 -50 -30.5t-71 -110.5z" />
<glyph unicode="&#xd2;" horiz-adv-x="915" d="M102 766q0 214 24.5 367.5t71.5 245t111 133.5t148 42q85 0 148.5 -42t111 -133.5t72 -245t24.5 -367.5t-24.5 -367t-72 -244t-111 -133t-148.5 -42t-148.5 42t-110.5 133t-71.5 244t-24.5 367zM205 1905h151l154 -260h-59zM211 766q0 -705 246 -705q131 0 189.5 175 t58.5 530t-59 531t-189 176q-246 0 -246 -707z" />
<glyph unicode="&#xd3;" horiz-adv-x="915" d="M102 766q0 214 24.5 367.5t71.5 245t111 133.5t148 42q85 0 148.5 -42t111 -133.5t72 -245t24.5 -367.5t-24.5 -367t-72 -244t-111 -133t-148.5 -42t-148.5 42t-110.5 133t-71.5 244t-24.5 367zM211 766q0 -705 246 -705q131 0 189.5 175t58.5 530t-59 531t-189 176 q-246 0 -246 -707zM387 1645l154 260h151l-246 -260h-59z" />
<glyph unicode="&#xd4;" horiz-adv-x="915" d="M102 766q0 214 24.5 367.5t71.5 245t111 133.5t148 42q85 0 148.5 -42t111 -133.5t72 -245t24.5 -367.5t-24.5 -367t-72 -244t-111 -133t-148.5 -42t-148.5 42t-110.5 133t-71.5 244t-24.5 367zM205 1659l250 250l250 -250l-43 -43l-207 156l-207 -156zM211 766 q0 -705 246 -705q131 0 189.5 175t58.5 530t-59 531t-189 176q-246 0 -246 -707z" />
<glyph unicode="&#xd5;" horiz-adv-x="915" d="M102 766q0 214 24.5 367.5t71.5 245t111 133.5t148 42q85 0 148.5 -42t111 -133.5t72 -245t24.5 -367.5t-24.5 -367t-72 -244t-111 -133t-148.5 -42t-148.5 42t-110.5 133t-71.5 244t-24.5 367zM188 1673q51 111 94 161t93 50q31 0 61 -22.5t49.5 -49t40 -49t33.5 -22.5 q21 0 48 30.5t71 110.5l51 -24q-53 -111 -94.5 -161t-85.5 -50q-29 0 -58.5 22.5t-49 49t-42 49t-39.5 22.5q-23 0 -49.5 -30.5t-70.5 -110.5zM211 766q0 -705 246 -705q131 0 189.5 175t58.5 530t-59 531t-189 176q-246 0 -246 -707z" />
<glyph unicode="&#xd6;" horiz-adv-x="915" d="M102 766q0 214 24.5 367.5t71.5 245t111 133.5t148 42q85 0 148.5 -42t111 -133.5t72 -245t24.5 -367.5t-24.5 -367t-72 -244t-111 -133t-148.5 -42t-148.5 42t-110.5 133t-71.5 244t-24.5 367zM211 766q0 -705 246 -705q131 0 189.5 175t58.5 530t-59 531t-189 176 q-246 0 -246 -707zM229 1776q0 56 15 76t53 20q36 0 50.5 -20t14.5 -76t-14.5 -76.5t-50.5 -20.5q-38 0 -53 20.5t-15 76.5zM547 1776q0 56 14.5 76t50.5 20q38 0 53 -20t15 -76t-15 -76.5t-53 -20.5q-36 0 -50.5 20.5t-14.5 76.5z" />
<glyph unicode="&#xd7;" horiz-adv-x="649" d="M98 530l168 168l-168 168l58 58l166 -168l167 168l58 -58l-168 -168l168 -168l-55 -57l-170 168l-168 -168z" />
<glyph unicode="&#xd8;" horiz-adv-x="915" d="M98 -102l97 264q-93 197 -93 604q0 214 24.5 367.5t71.5 245t111 133.5t148 42q126 0 207 -94l63 178h82l-94 -260q98 -194 98 -612q0 -214 -24.5 -367t-72 -244t-111 -133t-148.5 -42q-132 0 -211 98l-66 -180h-82zM211 766q0 -287 39 -453l373 1037q-59 123 -166 123 q-246 0 -246 -707zM287 195q62 -134 170 -134q131 0 189.5 175t58.5 530q0 306 -41 469z" />
<glyph unicode="&#xd9;" horiz-adv-x="921" d="M143 582v954h103v-954q0 -519 213 -519q217 0 217 519v954h102v-954q0 -134 -15 -237.5t-42 -172t-67.5 -112t-87.5 -62t-105 -18.5q-59 0 -106.5 18.5t-87.5 62t-67 112t-42 171.5t-15 238zM215 1905h152l153 -260h-59z" />
<glyph unicode="&#xda;" horiz-adv-x="921" d="M143 582v954h103v-954q0 -519 213 -519q217 0 217 519v954h102v-954q0 -134 -15 -237.5t-42 -172t-67.5 -112t-87.5 -62t-105 -18.5q-59 0 -106.5 18.5t-87.5 62t-67 112t-42 171.5t-15 238zM379 1645l153 260h152l-246 -260h-59z" />
<glyph unicode="&#xdb;" horiz-adv-x="921" d="M143 582v954h103v-954q0 -519 213 -519q217 0 217 519v954h102v-954q0 -134 -15 -237.5t-42 -172t-67.5 -112t-87.5 -62t-105 -18.5q-59 0 -106.5 18.5t-87.5 62t-67 112t-42 171.5t-15 238zM209 1659l250 250l250 -250l-43 -43l-207 156l-207 -156z" />
<glyph unicode="&#xdc;" horiz-adv-x="921" d="M143 582v954h103v-954q0 -519 213 -519q217 0 217 519v954h102v-954q0 -134 -15 -237.5t-42 -172t-67.5 -112t-87.5 -62t-105 -18.5q-59 0 -106.5 18.5t-87.5 62t-67 112t-42 171.5t-15 238zM233 1776q0 56 15 76t53 20q36 0 51 -20t15 -76t-15 -76.5t-51 -20.5 q-38 0 -53 20.5t-15 76.5zM551 1776q0 56 14.5 76t50.5 20q38 0 53 -20t15 -76t-15 -76.5t-53 -20.5q-36 0 -50.5 20.5t-14.5 76.5z" />
<glyph unicode="&#xdd;" d="M49 1536h119l254 -788l246 788h118l-317 -815v-721h-102v721zM346 1645l154 260h151l-245 -260h-60z" />
<glyph unicode="&#xde;" horiz-adv-x="833" d="M164 0v1536h102v-279h129q169 0 263 -122.5t94 -366.5q0 -489 -357 -489h-129v-279h-102zM266 367h125q132 0 192 97.5t60 303.5t-60 303.5t-192 97.5h-125v-802z" />
<glyph unicode="&#xdf;" horiz-adv-x="899" d="M143 0v1335q0 131 71.5 193.5t199.5 62.5q129 0 203.5 -73t74.5 -193q0 -59 -21.5 -110.5t-52 -89.5t-60.5 -74.5t-51.5 -81t-21.5 -92.5q0 -65 36.5 -126.5t121.5 -146.5q100 -98 137 -170.5t37 -191.5q0 -123 -72 -192.5t-180 -69.5q-77 0 -135.5 33t-91.5 91l80 64 q22 -48 62 -77.5t85 -29.5q66 0 108 50.5t42 128.5q0 81 -31.5 144t-122.5 148q-64 60 -99.5 104.5t-57 104.5t-21.5 136q0 57 21.5 107.5t51.5 88.5t60.5 75t52 82.5t21.5 94.5q0 76 -53.5 130t-122.5 54q-85 0 -126.5 -47.5t-41.5 -132.5v-1329h-103z" />
<glyph unicode="&#xe0;" horiz-adv-x="743" d="M82 274q0 158 76 234t194 76q88 0 166 -56v254q0 137 -31 199.5t-98 62.5q-65 0 -106 -51t-52 -143l-100 24q16 110 85 181t173 71q107 0 169.5 -76.5t62.5 -220.5v-829h-82l-7 225h-8q-44 -129 -100.5 -187t-132.5 -58q-94 0 -151.5 69.5t-57.5 224.5zM182 1577h135 l134 -311h-58zM190 274q0 -206 111 -206q51 0 109 57t108 197v145q-72 35 -166 35q-77 0 -119.5 -60t-42.5 -168z" />
<glyph unicode="&#xe1;" horiz-adv-x="743" d="M82 274q0 158 76 234t194 76q88 0 166 -56v254q0 137 -31 199.5t-98 62.5q-65 0 -106 -51t-52 -143l-100 24q16 110 85 181t173 71q107 0 169.5 -76.5t62.5 -220.5v-829h-82l-7 225h-8q-44 -129 -100.5 -187t-132.5 -58q-94 0 -151.5 69.5t-57.5 224.5zM190 274 q0 -206 111 -206q51 0 109 57t108 197v145q-72 35 -166 35q-77 0 -119.5 -60t-42.5 -168zM330 1266l133 311h135l-211 -311h-57z" />
<glyph unicode="&#xe2;" horiz-adv-x="743" d="M82 274q0 158 76 234t194 76q88 0 166 -56v254q0 137 -31 199.5t-98 62.5q-65 0 -106 -51t-52 -143l-100 24q16 110 85 181t173 71q107 0 169.5 -76.5t62.5 -220.5v-829h-82l-7 225h-8q-44 -129 -100.5 -187t-132.5 -58q-94 0 -151.5 69.5t-57.5 224.5zM154 1286l229 291 l229 -291l-43 -37l-186 187l-186 -187zM190 274q0 -206 111 -206q51 0 109 57t108 197v145q-72 35 -166 35q-77 0 -119.5 -60t-42.5 -168z" />
<glyph unicode="&#xe3;" horiz-adv-x="743" d="M82 274q0 158 76 234t194 76q88 0 166 -56v254q0 137 -31 199.5t-98 62.5q-65 0 -106 -51t-52 -143l-100 24q16 110 85 181t173 71q107 0 169.5 -76.5t62.5 -220.5v-829h-82l-7 225h-8q-44 -129 -100.5 -187t-132.5 -58q-94 0 -151.5 69.5t-57.5 224.5zM129 1305 q46 123 85.5 177t88.5 54q28 0 56 -25.5t46.5 -56.5t37 -56.5t28.5 -25.5q23 0 46.5 35t60.5 127l51 -25q-45 -121 -84 -176t-82 -55q-27 0 -55 25.5t-46.5 56.5t-39 56.5t-35.5 25.5q-23 0 -46.5 -35t-60.5 -127zM190 274q0 -206 111 -206q51 0 109 57t108 197v145 q-72 35 -166 35q-77 0 -119.5 -60t-42.5 -168z" />
<glyph unicode="&#xe4;" horiz-adv-x="743" d="M82 274q0 158 76 234t194 76q88 0 166 -56v254q0 137 -31 199.5t-98 62.5q-65 0 -106 -51t-52 -143l-100 24q16 110 85 181t173 71q107 0 169.5 -76.5t62.5 -220.5v-829h-82l-7 225h-8q-44 -129 -100.5 -187t-132.5 -58q-94 0 -151.5 69.5t-57.5 224.5zM156 1442 q0 56 14.5 76t52.5 20q36 0 51 -20t15 -76t-15 -76t-51 -20q-38 0 -52.5 20t-14.5 76zM190 274q0 -206 111 -206q51 0 109 57t108 197v145q-72 35 -166 35q-77 0 -119.5 -60t-42.5 -168zM473 1442q0 56 15 76t51 20q38 0 52.5 -20t14.5 -76t-14.5 -76t-52.5 -20 q-36 0 -51 20t-15 76z" />
<glyph unicode="&#xe5;" horiz-adv-x="743" d="M82 274q0 158 76 234t194 76q88 0 166 -56v254q0 137 -31 199.5t-98 62.5q-65 0 -106 -51t-52 -143l-100 24q16 110 85 181t173 71q107 0 169.5 -76.5t62.5 -220.5v-829h-82l-7 225h-8q-44 -129 -100.5 -187t-132.5 -58q-94 0 -151.5 69.5t-57.5 224.5zM190 274 q0 -206 111 -206q51 0 109 57t108 197v145q-72 35 -166 35q-77 0 -119.5 -60t-42.5 -168zM215 1415q0 76 48.5 129t125.5 53q80 0 128 -52.5t48 -129.5t-48 -129.5t-128 -52.5q-77 0 -125.5 53t-48.5 129zM289 1415q0 -46 27.5 -80.5t72.5 -34.5q48 0 75.5 34.5t27.5 80.5 q0 48 -27.5 82.5t-75.5 34.5q-45 0 -72.5 -35t-27.5 -82z" />
<glyph unicode="&#xe6;" horiz-adv-x="1112" d="M82 295q0 81 21.5 141.5t60 95t85.5 50.5t103 16q68 0 166 -20v204q0 137 -31 199.5t-98 62.5q-65 0 -106 -51t-52 -143l-100 24q16 110 85 181t173 71q81 0 129 -55.5t62 -152.5q61 208 204 208q88 0 144 -60t82 -196.5t16 -351.5h-405q2 -236 39 -346.5t120 -110.5 q53 0 94.5 53.5t51.5 141.5l98 -25q-16 -110 -80.5 -180.5t-161.5 -70.5q-98 0 -154 69t-77 230q-58 -169 -120.5 -234t-139.5 -65q-94 0 -151.5 74t-57.5 241zM190 295q0 -227 111 -227q51 0 109 57t108 197v194h-166q-77 0 -119.5 -56.5t-42.5 -164.5zM621 575l297 25 q3 166 -13 266t-46.5 139t-78.5 39q-83 0 -120 -113.5t-39 -355.5z" />
<glyph unicode="&#xe7;" horiz-adv-x="655" d="M82 551q0 575 268 575q94 0 150.5 -67.5t72.5 -179.5l-98 -25q-22 190 -129 190q-83 0 -119.5 -119t-36.5 -374q0 -254 37 -372t123 -118q53 0 94.5 53.5t51.5 141.5l98 -25q-15 -104 -74 -173t-147 -76l-15 -93q77 -15 120.5 -64.5t43.5 -121.5q0 -76 -52 -120t-132 -44 q-65 0 -111 38.5t-57 94.5l68 17q7 -41 36.5 -64.5t69.5 -23.5q86 0 86 92q0 47 -41 83t-133 46l53 162q-227 43 -227 567z" />
<glyph unicode="&#xe8;" horiz-adv-x="677" d="M82 551q0 575 272 575q134 0 195.5 -134t46.5 -433h-406v-8q0 -254 37 -372t123 -118q53 0 94.5 53.5t51.5 141.5l98 -25q-16 -110 -80.5 -180.5t-161.5 -70.5q-270 0 -270 571zM137 1577h135l134 -311h-58zM190 616l297 25q4 221 -30 312t-107 91q-79 0 -117 -104.5 t-43 -323.5z" />
<glyph unicode="&#xe9;" horiz-adv-x="677" d="M82 551q0 575 272 575q134 0 195.5 -134t46.5 -433h-406v-8q0 -254 37 -372t123 -118q53 0 94.5 53.5t51.5 141.5l98 -25q-16 -110 -80.5 -180.5t-161.5 -70.5q-270 0 -270 571zM190 616l297 25q4 221 -30 312t-107 91q-79 0 -117 -104.5t-43 -323.5zM287 1266l133 311 h135l-211 -311h-57z" />
<glyph unicode="&#xea;" horiz-adv-x="677" d="M82 551q0 575 272 575q134 0 195.5 -134t46.5 -433h-406v-8q0 -254 37 -372t123 -118q53 0 94.5 53.5t51.5 141.5l98 -25q-16 -110 -80.5 -180.5t-161.5 -70.5q-270 0 -270 571zM127 1286l229 291l230 -291l-43 -37l-187 187l-186 -187zM190 616l297 25q4 221 -30 312 t-107 91q-79 0 -117 -104.5t-43 -323.5z" />
<glyph unicode="&#xeb;" horiz-adv-x="681" d="M82 551q0 575 272 575q134 0 195.5 -134t46.5 -433h-406v-8q0 -254 37 -372t123 -118q53 0 94.5 53.5t51.5 141.5l98 -25q-16 -110 -80.5 -180.5t-161.5 -70.5q-270 0 -270 571zM125 1442q0 56 15 76t53 20q36 0 50.5 -20t14.5 -76t-14.5 -76t-50.5 -20q-38 0 -53 20 t-15 76zM190 616l297 25q4 221 -30 312t-107 91q-79 0 -117 -104.5t-43 -323.5zM442 1442q0 56 15 76t51 20q38 0 52.5 -20t14.5 -76t-14.5 -76t-52.5 -20q-36 0 -51 20t-15 76z" />
<glyph unicode="&#xec;" horiz-adv-x="393" d="M-27 1577h136l133 -311h-58zM61 1049v57h185v-1106h-103v1030z" />
<glyph unicode="&#xed;" horiz-adv-x="393" d="M61 1049v57h185v-1106h-103v1030zM123 1266l133 311h135l-211 -311h-57z" />
<glyph unicode="&#xee;" horiz-adv-x="393" d="M-45 1286l229 291l230 -291l-43 -37l-187 187l-186 -187zM61 1049v57h185v-1106h-103v1030z" />
<glyph unicode="&#xef;" horiz-adv-x="393" d="M-27 1442q0 56 15 76t53 20q36 0 50.5 -20t14.5 -76t-14.5 -76t-50.5 -20q-38 0 -53 20t-15 76zM61 1049v57h185v-1106h-103v1030zM250 1442q0 56 14.5 76t50.5 20q38 0 53 -20t15 -76t-15 -76t-53 -20q-36 0 -50.5 20t-14.5 76z" />
<glyph unicode="&#xf0;" horiz-adv-x="751" d="M82 551q0 158 19.5 273t54.5 179t78.5 93.5t97.5 29.5q103 0 215 -192q-33 292 -135 438l-205 -160v99l153 121q-78 75 -190 100l12 59q138 -22 240 -114l156 122v-98l-103 -82q195 -241 195 -774q0 -243 -37 -393.5t-100 -211t-158 -60.5q-293 0 -293 571zM190 551 q0 -252 42.5 -371t138.5 -119q104 0 147 132.5t43 451.5q0 58 -4 152q-3 6 -17.5 30.5t-21 35t-21.5 34.5t-24.5 36.5t-24.5 32t-27.5 30t-27.5 21.5t-29.5 16t-29.5 5q-71 0 -107.5 -128.5t-36.5 -358.5z" />
<glyph unicode="&#xf1;" horiz-adv-x="776" d="M123 0v1106h78l14 -277h8q13 46 36 93.5t56.5 95t81 78t99.5 30.5q87 0 122 -65.5t35 -231.5v-829h-102v782q0 142 -17 199t-63 57q-50 0 -122 -81.5t-124 -237.5v-719h-102zM137 1305q46 123 85.5 177t88.5 54q28 0 56 -25.5t46.5 -56.5t37 -56.5t28.5 -25.5 q23 0 46.5 35t60.5 127l51 -25q-45 -121 -84 -176t-82 -55q-27 0 -55 25.5t-46.5 56.5t-39 56.5t-35.5 25.5q-23 0 -46.5 -35t-60.5 -127z" />
<glyph unicode="&#xf2;" horiz-adv-x="751" d="M82 551q0 575 293 575q295 0 295 -575q0 -571 -295 -571q-293 0 -293 571zM162 1577h135l133 -311h-57zM190 551q0 -252 42.5 -371t138.5 -119q102 0 146 118t44 372q0 256 -44 374.5t-146 118.5q-96 0 -138.5 -119.5t-42.5 -373.5z" />
<glyph unicode="&#xf3;" horiz-adv-x="751" d="M82 551q0 575 293 575q295 0 295 -575q0 -571 -295 -571q-293 0 -293 571zM190 551q0 -252 42.5 -371t138.5 -119q102 0 146 118t44 372q0 256 -44 374.5t-146 118.5q-96 0 -138.5 -119.5t-42.5 -373.5zM291 1266l133 311h135l-211 -311h-57z" />
<glyph unicode="&#xf4;" horiz-adv-x="751" d="M82 551q0 575 293 575q295 0 295 -575q0 -571 -295 -571q-293 0 -293 571zM145 1286l230 291l229 -291l-43 -37l-186 187l-187 -187zM190 551q0 -252 42.5 -371t138.5 -119q102 0 146 118t44 372q0 256 -44 374.5t-146 118.5q-96 0 -138.5 -119.5t-42.5 -373.5z" />
<glyph unicode="&#xf5;" horiz-adv-x="751" d="M82 551q0 575 293 575q295 0 295 -575q0 -571 -295 -571q-293 0 -293 571zM127 1305q46 123 85.5 177t88.5 54q28 0 56 -25.5t46.5 -56.5t37 -56.5t28.5 -25.5q22 0 45.5 34.5t60.5 127.5l52 -25q-45 -121 -84 -176t-82 -55q-27 0 -55 25.5t-46.5 56.5t-39 56.5 t-35.5 25.5q-23 0 -46.5 -35t-60.5 -127zM190 551q0 -252 42.5 -371t138.5 -119q102 0 146 118t44 372q0 256 -44 374.5t-146 118.5q-96 0 -138.5 -119.5t-42.5 -373.5z" />
<glyph unicode="&#xf6;" horiz-adv-x="751" d="M82 551q0 575 293 575q295 0 295 -575q0 -571 -295 -571q-293 0 -293 571zM147 1442q0 56 15 76t53 20q36 0 51 -20t15 -76t-15 -76t-51 -20q-38 0 -53 20t-15 76zM190 551q0 -252 42.5 -371t138.5 -119q102 0 146 118t44 372q0 256 -44 374.5t-146 118.5 q-96 0 -138.5 -119.5t-42.5 -373.5zM465 1442q0 56 14.5 76t50.5 20q38 0 53 -20t15 -76t-15 -76t-53 -20q-36 0 -50.5 20t-14.5 76z" />
<glyph unicode="&#xf7;" horiz-adv-x="649" d="M61 659v80h527v-80h-527zM256 446q0 39 15 52.5t53 13.5q37 0 51 -14.5t14 -51.5t-14.5 -52t-50.5 -15q-37 0 -52.5 15t-15.5 52zM256 954q0 39 15 52.5t53 13.5q37 0 51 -14.5t14 -51.5t-14.5 -52t-50.5 -15q-37 0 -52.5 15t-15.5 52z" />
<glyph unicode="&#xf8;" horiz-adv-x="751" d="M82 551q0 575 293 575q90 0 149 -53l49 135h82l-73 -202q88 -142 88 -455q0 -571 -295 -571q-84 0 -146 47l-47 -129h-82l70 196q-88 139 -88 457zM190 551q0 -207 23 -338l276 766q-44 65 -118 65q-96 0 -138.5 -119.5t-42.5 -373.5zM262 119q40 -58 109 -58 q102 0 146 118t44 372q0 208 -22 334z" />
<glyph unicode="&#xf9;" horiz-adv-x="776" d="M123 276v830h102v-823q0 -65 7 -109t21 -66.5t29.5 -31t36.5 -8.5q51 0 116 80t116 237v721h102v-1106h-78l-12 262h-8q-104 -282 -260 -282q-56 0 -91.5 23.5t-58 90.5t-22.5 182zM152 1577h135l133 -311h-58z" />
<glyph unicode="&#xfa;" horiz-adv-x="776" d="M123 276v830h102v-823q0 -65 7 -109t21 -66.5t29.5 -31t36.5 -8.5q51 0 116 80t116 237v721h102v-1106h-78l-12 262h-8q-104 -282 -260 -282q-56 0 -91.5 23.5t-58 90.5t-22.5 182zM315 1266l134 311h135l-211 -311h-58z" />
<glyph unicode="&#xfb;" horiz-adv-x="776" d="M123 276v830h102v-823q0 -65 7 -109t21 -66.5t29.5 -31t36.5 -8.5q51 0 116 80t116 237v721h102v-1106h-78l-12 262h-8q-104 -282 -260 -282q-56 0 -91.5 23.5t-58 90.5t-22.5 182zM166 1286l229 291l230 -291l-43 -37l-187 187l-186 -187z" />
<glyph unicode="&#xfc;" horiz-adv-x="776" d="M123 276v830h102v-823q0 -65 7 -109t21 -66.5t29.5 -31t36.5 -8.5q51 0 116 80t116 237v721h102v-1106h-78l-12 262h-8q-104 -282 -260 -282q-56 0 -91.5 23.5t-58 90.5t-22.5 182zM168 1442q0 56 15 76t53 20q36 0 50.5 -20t14.5 -76t-14.5 -76t-50.5 -20q-38 0 -53 20 t-15 76zM485 1442q0 56 15 76t51 20q38 0 52.5 -20t14.5 -76t-14.5 -76t-52.5 -20q-36 0 -51 20t-15 76z" />
<glyph unicode="&#xfd;" horiz-adv-x="643" d="M31 1106h119l155 -707l19 -123h8l12 123l139 707h119l-235 -938l-111 -639h-119l156 637zM274 1266l134 311h135l-211 -311h-58z" />
<glyph unicode="&#xfe;" horiz-adv-x="763" d="M123 -471v2048h102v-721q53 140 109.5 205t122.5 65q39 0 70 -13t61 -50.5t50 -100t32 -166.5t12 -245q0 -127 -12.5 -226.5t-34.5 -163.5t-52.5 -105.5t-64.5 -58.5t-74 -17q-65 0 -117 46t-102 164v-661h-102zM225 322q26 -74 55 -127t57 -79t51 -37t44 -11 q141 0 141 483q0 113 -8 200.5t-21 140.5t-30.5 87t-34.5 46.5t-35 12.5q-49 0 -109 -79.5t-110 -239.5v-397z" />
<glyph unicode="&#xff;" horiz-adv-x="643" d="M31 1106h119l155 -707l19 -123h8l12 123l139 707h119l-235 -938l-111 -639h-119l156 637zM109 1442q0 56 14.5 76t52.5 20q36 0 51 -20t15 -76t-15 -76t-51 -20q-38 0 -52.5 20t-14.5 76zM426 1442q0 56 15 76t51 20q38 0 52.5 -20t14.5 -76t-14.5 -76t-52.5 -20 q-36 0 -51 20t-15 76z" />
<glyph unicode="&#x152;" horiz-adv-x="1138" d="M102 766q0 214 27 367.5t80 245t124 133.5t165 42q64 0 123 -18h477v-102l-369 26v-602l305 23v-107l-305 21v-721l369 28v-102h-471q-59 -20 -129 -20q-94 0 -165 42t-124 133t-80 244t-27 367zM211 766q0 -351 70 -528t217 -177q77 0 129 41v1330q-56 41 -129 41 q-147 0 -217 -178t-70 -529z" />
<glyph unicode="&#x153;" horiz-adv-x="1163" d="M82 551q0 575 293 575q83 0 137.5 -55.5t83.5 -173.5q30 118 89.5 173.5t150.5 55.5q133 0 194.5 -134t46.5 -433h-426v-8q0 -254 41.5 -372t138.5 -118q53 0 94.5 53.5t51.5 141.5l98 -25q-16 -110 -80 -180.5t-161 -70.5q-91 0 -149.5 54.5t-88.5 172.5 q-29 -118 -83.5 -172.5t-137.5 -54.5q-293 0 -293 571zM190 551q0 -252 42.5 -371t138.5 -119q92 0 131 117.5t39 372.5q0 256 -39 374.5t-131 118.5q-96 0 -138.5 -119.5t-42.5 -373.5zM651 616l318 25q4 221 -30.5 312t-107.5 91q-90 0 -132.5 -104.5t-47.5 -323.5z" />
<glyph unicode="&#x178;" d="M49 1536h119l254 -788l246 788h118l-317 -815v-721h-102v721zM199 1776q0 56 14.5 76t52.5 20q36 0 51 -20t15 -76t-15 -76.5t-51 -20.5q-37 0 -52 20.5t-15 76.5zM516 1776q0 56 15 76t51 20q38 0 52.5 -20t14.5 -76t-15 -76.5t-52 -20.5q-36 0 -51 20.5t-15 76.5z" />
<glyph unicode="&#x2c6;" horiz-adv-x="573" d="M57 1286l230 291l229 -291l-43 -37l-186 187l-187 -187z" />
<glyph unicode="&#x2dc;" horiz-adv-x="567" d="M53 1305q46 123 85.5 177t88.5 54q28 0 56 -25.5t46.5 -56.5t37 -56.5t28.5 -25.5q23 0 46.5 35t60.5 127l51 -25q-45 -121 -84 -176t-82 -55q-27 0 -55 25.5t-46.5 56.5t-39 56.5t-35.5 25.5q-23 0 -46.5 -35t-60.5 -127z" />
<glyph unicode="&#x2000;" horiz-adv-x="954" />
<glyph unicode="&#x2001;" horiz-adv-x="1909" />
<glyph unicode="&#x2002;" horiz-adv-x="954" />
<glyph unicode="&#x2003;" horiz-adv-x="1909" />
<glyph unicode="&#x2004;" horiz-adv-x="636" />
<glyph unicode="&#x2005;" horiz-adv-x="477" />
<glyph unicode="&#x2006;" horiz-adv-x="318" />
<glyph unicode="&#x2007;" horiz-adv-x="318" />
<glyph unicode="&#x2008;" horiz-adv-x="238" />
<glyph unicode="&#x2009;" horiz-adv-x="381" />
<glyph unicode="&#x200a;" horiz-adv-x="106" />
<glyph unicode="&#x2010;" horiz-adv-x="485" d="M61 578v90h363v-90h-363z" />
<glyph unicode="&#x2011;" horiz-adv-x="485" d="M61 578v90h363v-90h-363z" />
<glyph unicode="&#x2012;" horiz-adv-x="485" d="M61 578v90h363v-90h-363z" />
<glyph unicode="&#x2013;" horiz-adv-x="690" d="M61 659v80h568v-80h-568z" />
<glyph unicode="&#x2014;" horiz-adv-x="1161" d="M61 659v80h1039v-80h-1039z" />
<glyph unicode="&#x2018;" horiz-adv-x="342" d="M41 1180l186 417h74l-125 -417h-135z" />
<glyph unicode="&#x2019;" horiz-adv-x="342" d="M41 1180l125 417h135l-186 -417h-74z" />
<glyph unicode="&#x201a;" horiz-adv-x="342" d="M41 -213l125 418h135l-186 -418h-74z" />
<glyph unicode="&#x201c;" horiz-adv-x="567" d="M41 1180l186 417h74l-125 -417h-135zM266 1180l187 417h73l-125 -417h-135z" />
<glyph unicode="&#x201d;" horiz-adv-x="567" d="M41 1180l125 417h135l-186 -417h-74zM266 1180l125 417h135l-186 -417h-74z" />
<glyph unicode="&#x201e;" horiz-adv-x="567" d="M41 -213l125 418h135l-186 -418h-74zM266 -213l125 418h135l-186 -418h-74z" />
<glyph unicode="&#x2022;" horiz-adv-x="415" d="M102 553q0 88 23.5 120t83.5 32q59 0 81.5 -32t22.5 -120t-22.5 -120t-81.5 -32q-60 0 -83.5 32t-23.5 120z" />
<glyph unicode="&#x2026;" horiz-adv-x="1241" d="M129 102q0 63 17 86t59 23t59 -23t17 -86t-17 -85.5t-59 -22.5t-59 22.5t-17 85.5zM543 102q0 63 16.5 86t58.5 23t59 -23t17 -86t-17 -85.5t-59 -22.5t-58.5 22.5t-16.5 85.5zM956 102q0 63 17 86t59 23t59 -23t17 -86t-17 -85.5t-59 -22.5t-59 22.5t-17 85.5z" />
<glyph unicode="&#x202f;" horiz-adv-x="381" />
<glyph unicode="&#x2039;" horiz-adv-x="555" d="M102 659l287 467l64 -36l-215 -431l215 -430l-64 -36z" />
<glyph unicode="&#x203a;" horiz-adv-x="555" d="M102 229l215 430l-215 431l64 36l287 -467l-287 -466z" />
<glyph unicode="&#x205f;" horiz-adv-x="477" />
<glyph unicode="&#x20ac;" horiz-adv-x="827" d="M0 588v80h113v98v88h-113v80h117q11 221 54.5 361t110 199.5t160.5 59.5q108 0 176 -82.5t103 -263.5l-96 -24q-24 143 -69 216t-118 73q-194 0 -215 -539h324l-27 -80h-299v-88v-98h240l-25 -80h-211q21 -527 213 -527q145 0 207 297l100 -26q-40 -185 -116 -268.5 t-187 -83.5q-93 0 -159 58t-110 195.5t-56 354.5h-117z" />
<glyph unicode="&#x2122;" horiz-adv-x="1058" d="M0 1466v70h389v-70l-153 17v-697h-80v699zM461 786v750h78l147 -356l8 -52l11 52l145 356h80v-750h-80v625l-129 -395h-55l-127 393v-623h-78z" />
<glyph unicode="&#x25fc;" horiz-adv-x="1105" d="M0 0v1106h1106v-1106h-1106z" />
<glyph unicode="&#xfb01;" horiz-adv-x="864" d="M61 1018v57l82 8v252q0 128 51.5 192t133.5 64q65 0 108 -14v-92q-37 18 -84 18q-59 0 -82.5 -39t-23.5 -135v-233l186 20v-98h-186v-1018h-103v1018h-82zM532 1049v57h185v-1106h-103v1030zM580 1434q0 63 16.5 85.5t58.5 22.5t59 -22.5t17 -85.5t-17 -86t-59 -23 t-58.5 23t-16.5 86z" />
<glyph unicode="&#xfb02;" horiz-adv-x="839" d="M61 1018v57l82 8v252q0 128 51.5 192t133.5 64q65 0 108 -14v-92q-37 18 -84 18q-59 0 -82.5 -39t-23.5 -135v-233l186 20v-98h-186v-1018h-103v1018h-82zM594 139v1438h102v-1432q0 -39 12.5 -55t39.5 -16q32 0 63 10v-84q-35 -14 -90 -14t-91 38t-36 115z" />
</font>
</defs>
</svg>
